<svg id="Layer_1" xmlns="http://www.w3.org/2000/svg" viewBox="0 0 255.32 253.28"><defs><style>.cls-1{fill:#fff;}.cls-2{fill:#a64ac9;}</style></defs><title>icons</title><path class="cls-1" d="M221.15,39H37.7C20.84,39,7.13,49.42,7.13,62.24V201.73C7.13,214.55,20.84,225,37.7,225H221.15c16.86,0,30.57-10.43,30.57-23.25V62.24C251.72,49.42,238,39,221.15,39Z"/><path class="cls-2" d="M194.78,125.49c5.55-5.53,3.83-16.71-5.78-16.71l-25.3,0c1-5.36,2.35-14.24,2.3-15.07-.53-8-5.6-17.61-5.81-18-.93-1.72-5.59-4-10.28-3-6.07,1.3-6.69,5.17-6.66,6.24,0,0,.26,10.58.28,13.4-2.89,6.38-12.89,23.11-15.93,24.4a4.57,4.57,0,0,0-2.4-.67h-32a4.9,4.9,0,0,0-4.9,4.9v44.17a4.64,4.64,0,0,0,4.6,4.25h28.7a4.62,4.62,0,0,0,4.62-4.62v-1.46a3.3,3.3,0,0,1,1.55.23c1.85,1.17,4.13,2.65,7.11,2.65h42.83c16,0,14.3-14.22,12.84-16.16,2.7-2.95,4.38-8.14,2.09-12.25C194.45,135.89,197.54,130.78,194.78,125.49Zm-74.1,39.24H93V120.65h27.73Zm66.63-39.62-.26,1.09c7.38,2.1,3.45,10.6-1.84,11.16l-.26,1.09c7.08,1.8,3.7,10.56-1.84,11.16l-.26,1.09c5.78.94,4.38,10.81-4.38,10.81H134.9c-3.08,0-5.88-3.5-8.15-3.5h-2V124.09a71.1,71.1,0,0,0,7.17-4.94c3.18-2.71,16.19-23.73,16.19-26.36s-.29-14-.29-14,2.55-3.29,8.24-.89c0,0,4.79,9,5.28,16.15,0,0-2.15,14.75-3.32,19.38h30.21C195.68,113.42,194.26,124,187.31,125.11Z"/></svg>